<mxfile host="app.diagrams.net" agent="Mozilla/5.0 (Windows NT 10.0; Win64; x64; rv:144.0) Gecko/20100101 Firefox/144.0" version="28.2.8">
  <diagram name="Page-1" id="IgCo4UZwmXHbuVfaNSs3">
    <mxGraphModel dx="983" dy="518" grid="1" gridSize="10" guides="1" tooltips="1" connect="1" arrows="1" fold="1" page="1" pageScale="1" pageWidth="827" pageHeight="1169" math="0" shadow="0">
      <root>
        <mxCell id="0" />
        <mxCell id="1" parent="0" />
        <mxCell id="Ye0Dg4Rw3fafRKkHhPYf-3" value="" style="shape=mxgraph.cisco.switches.workgroup_switch;sketch=0;html=1;pointerEvents=1;dashed=0;fillColor=#036897;strokeColor=#ffffff;strokeWidth=2;verticalLabelPosition=bottom;verticalAlign=top;align=center;outlineConnect=0;" vertex="1" parent="1">
          <mxGeometry x="210" y="330" width="101" height="50" as="geometry" />
        </mxCell>
        <mxCell id="Ye0Dg4Rw3fafRKkHhPYf-5" value="" style="shape=mxgraph.cisco.switches.workgroup_switch;sketch=0;html=1;pointerEvents=1;dashed=0;fillColor=#036897;strokeColor=#ffffff;strokeWidth=2;verticalLabelPosition=bottom;verticalAlign=top;align=center;outlineConnect=0;" vertex="1" parent="1">
          <mxGeometry x="210" y="300" width="101" height="50" as="geometry" />
        </mxCell>
        <mxCell id="Ye0Dg4Rw3fafRKkHhPYf-1" value="" style="shape=mxgraph.cisco.security.firewall;sketch=0;html=1;pointerEvents=1;dashed=0;fillColor=#036897;strokeColor=#ffffff;strokeWidth=2;verticalLabelPosition=bottom;verticalAlign=top;align=center;outlineConnect=0;direction=north;rotation=0;" vertex="1" parent="1">
          <mxGeometry x="360" y="250" width="90" height="30" as="geometry" />
        </mxCell>
        <mxCell id="Ye0Dg4Rw3fafRKkHhPYf-2" value="FGT" style="text;html=1;whiteSpace=wrap;strokeColor=none;fillColor=none;align=center;verticalAlign=middle;rounded=0;" vertex="1" parent="1">
          <mxGeometry x="383" y="260" width="60" height="20" as="geometry" />
        </mxCell>
        <mxCell id="Ye0Dg4Rw3fafRKkHhPYf-4" value="" style="shape=mxgraph.cisco.switches.layer_2_remote_switch;sketch=0;html=1;pointerEvents=1;dashed=0;fillColor=#036897;strokeColor=#ffffff;strokeWidth=2;verticalLabelPosition=bottom;verticalAlign=top;align=center;outlineConnect=0;" vertex="1" parent="1">
          <mxGeometry x="349.5" y="330" width="101" height="50" as="geometry" />
        </mxCell>
        <mxCell id="Ye0Dg4Rw3fafRKkHhPYf-6" value="" style="shape=mxgraph.cisco.switches.layer_2_remote_switch;sketch=0;html=1;pointerEvents=1;dashed=0;fillColor=#036897;strokeColor=#ffffff;strokeWidth=2;verticalLabelPosition=bottom;verticalAlign=top;align=center;outlineConnect=0;" vertex="1" parent="1">
          <mxGeometry x="349.5" y="300" width="100.5" height="50" as="geometry" />
        </mxCell>
        <mxCell id="Ye0Dg4Rw3fafRKkHhPYf-7" style="edgeStyle=orthogonalEdgeStyle;rounded=0;orthogonalLoop=1;jettySize=auto;html=1;exitX=0;exitY=1;exitDx=0;exitDy=0;exitPerimeter=0;strokeWidth=2;endArrow=none;endFill=0;" edge="1" parent="1" source="Ye0Dg4Rw3fafRKkHhPYf-1" target="Ye0Dg4Rw3fafRKkHhPYf-6">
          <mxGeometry relative="1" as="geometry">
            <Array as="points">
              <mxPoint x="460" y="280" />
              <mxPoint x="460" y="325" />
            </Array>
          </mxGeometry>
        </mxCell>
        <mxCell id="Ye0Dg4Rw3fafRKkHhPYf-8" style="edgeStyle=orthogonalEdgeStyle;rounded=0;orthogonalLoop=1;jettySize=auto;html=1;exitX=0.5;exitY=1;exitDx=0;exitDy=0;exitPerimeter=0;strokeWidth=2;endArrow=none;endFill=0;entryX=1;entryY=1;entryDx=0;entryDy=0;entryPerimeter=0;" edge="1" parent="1" source="Ye0Dg4Rw3fafRKkHhPYf-1" target="Ye0Dg4Rw3fafRKkHhPYf-6">
          <mxGeometry relative="1" as="geometry">
            <mxPoint x="480" y="270" as="sourcePoint" />
            <mxPoint x="481" y="315" as="targetPoint" />
            <Array as="points">
              <mxPoint x="481" y="265" />
              <mxPoint x="481" y="350" />
            </Array>
          </mxGeometry>
        </mxCell>
        <mxCell id="Ye0Dg4Rw3fafRKkHhPYf-11" style="shape=connector;rounded=0;orthogonalLoop=1;jettySize=auto;html=1;exitX=1;exitY=0;exitDx=0;exitDy=0;exitPerimeter=0;entryX=0;entryY=1;entryDx=0;entryDy=0;entryPerimeter=0;strokeColor=default;strokeWidth=2;align=center;verticalAlign=middle;fontFamily=Helvetica;fontSize=11;fontColor=default;labelBackgroundColor=default;endArrow=none;endFill=0;" edge="1" parent="1" source="Ye0Dg4Rw3fafRKkHhPYf-5" target="Ye0Dg4Rw3fafRKkHhPYf-4">
          <mxGeometry relative="1" as="geometry" />
        </mxCell>
        <mxCell id="Ye0Dg4Rw3fafRKkHhPYf-12" style="shape=connector;rounded=0;orthogonalLoop=1;jettySize=auto;html=1;exitX=0.87;exitY=0.74;exitDx=0;exitDy=0;exitPerimeter=0;entryX=0;entryY=0.5;entryDx=0;entryDy=0;entryPerimeter=0;strokeColor=default;strokeWidth=2;align=center;verticalAlign=middle;fontFamily=Helvetica;fontSize=11;fontColor=default;labelBackgroundColor=default;endArrow=none;endFill=0;" edge="1" parent="1" source="Ye0Dg4Rw3fafRKkHhPYf-3" target="Ye0Dg4Rw3fafRKkHhPYf-6">
          <mxGeometry relative="1" as="geometry">
            <mxPoint x="311" y="350" as="sourcePoint" />
            <mxPoint x="352" y="405" as="targetPoint" />
          </mxGeometry>
        </mxCell>
      </root>
    </mxGraphModel>
  </diagram>
</mxfile>
